<svg width="204" height="55" viewBox="0 0 204 55" fill="none" xmlns="http://www.w3.org/2000/svg">
<g clip-path="url(#clip0_180_2729)">
<path d="M88.3875 17.638H84.8032L84.1169 19.5345C82.2485 17.7518 80.075 16.8793 77.5584 16.8793C74.8892 16.8793 72.6014 17.9035 70.6567 19.9138C68.7501 21.9242 67.7969 24.3138 67.7969 27.1207C67.7969 29.9656 68.7501 32.3552 70.6567 34.3655C72.6014 36.3759 74.8892 37.3621 77.5584 37.3621C80.075 37.3621 82.2485 36.4897 84.1169 34.7069L84.8032 36.6035H90.8279V33.038L88.3875 32.1276V17.638ZM78.0922 32.8862C76.5288 32.8862 75.1561 32.3173 74.0122 31.2173C72.8683 30.0793 72.2963 28.7138 72.2963 27.1207C72.2963 25.5276 72.8683 24.1621 74.0122 23.0621C75.1561 21.9242 76.5288 21.3552 78.0922 21.3552C79.6937 21.3552 81.0664 21.9242 82.1722 23.0621C83.3161 24.1621 83.8881 25.5276 83.8881 27.1207C83.8881 28.7138 83.3161 30.0793 82.1722 31.2173C81.0664 32.3173 79.6937 32.8862 78.0922 32.8862ZM107.4 17.638L102.443 32.8483L97.4855 17.638H91.7659V21.2035L94.2063 22.1138L98.9345 36.6035H105.951L110.679 22.1138L113.119 21.2035V17.638H107.4ZM123.866 32.8862C122.341 32.8862 121.121 31.6724 121.121 30.1552V21.4311H123.332V17.638H121.121V12.5173H116.621V17.638H114.181V21.4311H116.621V30.1552C116.621 32.9242 118.185 35.3897 120.587 36.6035H123.866V32.8862ZM136.03 16.8793C133.171 16.8793 130.768 17.9035 128.747 19.9138C126.727 21.9242 125.735 24.3138 125.735 27.1207C125.735 29.9656 126.727 32.3552 128.747 34.3655C130.768 36.3759 133.171 37.3621 136.03 37.3621C138.852 37.3621 141.254 36.3759 143.275 34.3655C145.296 32.3552 146.326 29.9656 146.326 27.1207C146.326 24.3138 145.296 21.9242 143.275 19.9138C141.254 17.9035 138.852 16.8793 136.03 16.8793ZM136.03 32.8862C134.429 32.8862 133.056 32.3173 131.912 31.2173C130.807 30.0793 130.235 28.7138 130.235 27.1207C130.235 25.5656 130.807 24.2 131.912 23.0621C133.056 21.9242 134.429 21.3552 136.03 21.3552C137.594 21.3552 138.967 21.9242 140.11 23.0621C141.254 24.2 141.826 25.5656 141.826 27.1207C141.826 28.7138 141.254 30.0793 140.11 31.2173C138.967 32.3173 137.594 32.8862 136.03 32.8862ZM161.267 16.8793C158.751 16.8793 156.577 17.7518 154.747 19.4966L154.06 17.638H147.998V21.2035L150.438 22.1138V44.1897H154.937V34.9345C156.768 36.5655 158.865 37.3621 161.267 37.3621C163.974 37.3621 166.262 36.3759 168.169 34.4035C170.075 32.4311 171.029 30.0414 171.029 27.2724V26.969C171.029 24.2 170.075 21.8104 168.169 19.838C166.262 17.8656 163.974 16.8793 161.267 16.8793ZM160.733 32.8862C159.17 32.8862 157.797 32.3173 156.653 31.2173C155.509 30.0793 154.937 28.7138 154.937 27.1207C154.937 25.5276 155.509 24.1621 156.653 23.0621C157.797 21.9242 159.17 21.3552 160.733 21.3552C162.335 21.3552 163.708 21.9242 164.813 23.0621C165.957 24.1621 166.529 25.5276 166.529 27.1207C166.529 28.7138 165.957 30.0793 164.813 31.2173C163.708 32.3173 162.335 32.8862 160.733 32.8862ZM179.777 17.638H172.837V21.2035L175.278 22.1138V36.6035H182.218V33.038L179.777 32.1276V17.638ZM175.545 10.6966V14.6793H179.548V10.6966H175.545ZM190.57 36.6035V31.5587L192.973 28.8656L198.959 36.6035H203.611V33.038L201.171 32.1276L196.023 25.4518L203.039 17.638H197.015L190.57 24.8449V10.0518H183.63V13.6552L186.07 14.5276V36.6035H190.57Z" fill="black"/>
<path d="M43.8505 0H11.4393C5.12153 0 0 5.09469 0 11.3793V43.6207C0 49.9053 5.12153 55 11.4393 55H43.8505C50.1682 55 55.2897 49.9053 55.2897 43.6207V11.3793C55.2897 5.09469 50.1682 0 43.8505 0Z" fill="#FF1700"/>
<path d="M41.1814 13.2756H35.8049L34.7754 16.1205C31.9728 13.4463 28.7126 12.1377 24.9377 12.1377C20.9339 12.1377 17.5021 13.6739 14.5851 16.6894C11.7253 19.7049 10.2954 23.2894 10.2954 27.4998C10.2954 31.767 11.7253 35.3515 14.5851 38.367C17.5021 41.3825 20.9339 42.8618 24.9377 42.8618C28.7126 42.8618 31.9728 41.5532 34.7754 38.8791L35.8049 41.7239H44.8419V36.3756L41.1814 35.0101V13.2756ZM25.7384 36.148C23.3934 36.148 21.3343 35.2946 19.6184 33.6446C17.9025 31.9377 17.0446 29.8894 17.0446 27.4998C17.0446 25.1101 17.9025 23.0618 19.6184 21.4118C21.3343 19.7049 23.3934 18.8515 25.7384 18.8515C28.1406 18.8515 30.1997 19.7049 31.8584 21.4118C33.5743 23.0618 34.4322 25.1101 34.4322 27.4998C34.4322 29.8894 33.5743 31.9377 31.8584 33.6446C30.1997 35.2946 28.1406 36.148 25.7384 36.148Z" fill="white"/>
</g>
<defs>
<clipPath id="clip0_180_2729">
<rect width="204" height="55" fill="white"/>
</clipPath>
</defs>
</svg>
