<svg width="56" height="55" viewBox="0 0 56 55" fill="none" xmlns="http://www.w3.org/2000/svg">
<path d="M43.8505 0H11.4393C5.12153 0 0 5.09469 0 11.3793V43.6207C0 49.9053 5.12153 55 11.4393 55H43.8505C50.1682 55 55.2897 49.9053 55.2897 43.6207V11.3793C55.2897 5.09469 50.1682 0 43.8505 0Z" fill="#FF1700"/>
<path d="M41.1814 13.2756H35.8049L34.7754 16.1205C31.9728 13.4463 28.7126 12.1377 24.9377 12.1377C20.9339 12.1377 17.5021 13.6739 14.5851 16.6894C11.7253 19.7049 10.2954 23.2894 10.2954 27.4998C10.2954 31.767 11.7253 35.3515 14.5851 38.367C17.5021 41.3825 20.9339 42.8618 24.9377 42.8618C28.7126 42.8618 31.9728 41.5532 34.7754 38.8791L35.8049 41.7239H44.8419V36.3756L41.1814 35.0101V13.2756ZM25.7384 36.148C23.3934 36.148 21.3343 35.2946 19.6184 33.6446C17.9025 31.9377 17.0446 29.8894 17.0446 27.4998C17.0446 25.1101 17.9025 23.0618 19.6184 21.4118C21.3343 19.7049 23.3934 18.8515 25.7384 18.8515C28.1406 18.8515 30.1997 19.7049 31.8584 21.4118C33.5743 23.0618 34.4322 25.1101 34.4322 27.4998C34.4322 29.8894 33.5743 31.9377 31.8584 33.6446C30.1997 35.2946 28.1406 36.148 25.7384 36.148Z" fill="white"/>
</svg>
