<svg width="258" height="185" viewBox="0 0 258 185" fill="none" xmlns="http://www.w3.org/2000/svg">
<g clip-path="url(#clip0_180_2149)">
<path d="M251.978 184.791H97.181C95.5845 184.79 94.0539 184.156 92.9249 183.03C91.796 181.904 91.161 180.377 91.1592 178.785V6.0066C91.161 4.4141 91.796 2.88734 92.9249 1.76127C94.0539 0.635204 95.5845 0.00179275 97.181 0H251.978C253.575 0.00179275 255.105 0.635204 256.234 1.76127C257.363 2.88734 257.998 4.4141 258 6.0066V178.785C257.998 180.377 257.363 181.904 256.234 183.03C255.105 184.156 253.575 184.79 251.978 184.791ZM97.181 0.706659C95.7723 0.708249 94.4218 1.26714 93.4257 2.26073C92.4295 3.25432 91.8692 4.60146 91.8676 6.0066V178.785C91.8692 180.19 92.4295 181.537 93.4257 182.531C94.4218 183.524 95.7723 184.083 97.181 184.085H251.978C253.387 184.083 254.738 183.524 255.734 182.531C256.73 181.537 257.29 180.19 257.292 178.785V6.0066C257.29 4.60146 256.73 3.25432 255.734 2.26073C254.738 1.26714 253.387 0.708249 251.978 0.706659H97.181Z" fill="#3F3D56"/>
<path d="M257.646 14.6953H91.5132V15.402H257.646V14.6953Z" fill="#3F3D56"/>
<path d="M99.6605 10.6C101.226 10.6 102.494 9.33452 102.494 7.77341C102.494 6.21231 101.226 4.94678 99.6605 4.94678C98.0954 4.94678 96.8267 6.21231 96.8267 7.77341C96.8267 9.33452 98.0954 10.6 99.6605 10.6Z" fill="#FF1700"/>
<path d="M108.516 10.6C110.082 10.6 111.35 9.33452 111.35 7.77341C111.35 6.21231 110.082 4.94678 108.516 4.94678C106.951 4.94678 105.683 6.21231 105.683 7.77341C105.683 9.33452 106.951 10.6 108.516 10.6Z" fill="#FF1700"/>
<path d="M117.372 10.6C118.937 10.6 120.206 9.33452 120.206 7.77341C120.206 6.21231 118.937 4.94678 117.372 4.94678C115.807 4.94678 114.538 6.21231 114.538 7.77341C114.538 9.33452 115.807 10.6 117.372 10.6Z" fill="#FF1700"/>
<path d="M229.839 40.6329H119.32C118.099 40.6329 116.928 40.1489 116.064 39.2875C115.2 38.4261 114.715 37.2578 114.715 36.0396C114.715 34.8214 115.2 33.653 116.064 32.7916C116.928 31.9302 118.099 31.4463 119.32 31.4463H229.839C231.06 31.4463 232.232 31.9302 233.095 32.7916C233.959 33.653 234.444 34.8214 234.444 36.0396C234.444 37.2578 233.959 38.4261 233.095 39.2875C232.232 40.1489 231.06 40.6329 229.839 40.6329ZM119.32 32.1529C118.287 32.1529 117.296 32.5624 116.565 33.2913C115.834 34.0202 115.424 35.0088 115.424 36.0396C115.424 37.0704 115.834 38.0589 116.565 38.7878C117.296 39.5167 118.287 39.9262 119.32 39.9262H229.839C230.873 39.9262 231.864 39.5167 232.594 38.7878C233.325 38.0589 233.736 37.0704 233.736 36.0396C233.736 35.0088 233.325 34.0202 232.594 33.2913C231.864 32.5624 230.873 32.1529 229.839 32.1529H119.32Z" fill="#3F3D56"/>
<path d="M202.512 76.8813H152.212C151.46 76.8813 150.739 76.5835 150.208 76.0534C149.676 75.5233 149.378 74.8043 149.378 74.0547C149.378 73.305 149.676 72.586 150.208 72.0559C150.739 71.5258 151.46 71.228 152.212 71.228H202.512C203.264 71.228 203.984 71.5258 204.516 72.0559C205.047 72.586 205.346 73.305 205.346 74.0547C205.346 74.8043 205.047 75.5233 204.516 76.0534C203.984 76.5835 203.264 76.8813 202.512 76.8813Z" fill="#CCCCCC"/>
<path d="M231.559 86.4209H152.212C151.46 86.4209 150.739 86.123 150.208 85.5929C149.676 85.0629 149.378 84.3439 149.378 83.5942C149.378 82.8445 149.676 82.1256 150.208 81.5955C150.739 81.0654 151.46 80.7676 152.212 80.7676H231.559C232.31 80.7676 233.031 81.0654 233.562 81.5955C234.094 82.1256 234.392 82.8445 234.392 83.5942C234.392 84.3439 234.094 85.0629 233.562 85.5929C233.031 86.123 232.31 86.4209 231.559 86.4209Z" fill="#CCCCCC"/>
<path d="M133.364 86.9509H118.132C117.24 86.9499 116.384 86.5959 115.753 85.9667C115.122 85.3374 114.768 84.4842 114.767 83.5943V74.0544C114.768 73.1645 115.122 72.3113 115.753 71.682C116.384 71.0527 117.24 70.6988 118.132 70.6978H133.364C134.256 70.6988 135.111 71.0527 135.742 71.682C136.373 72.3113 136.728 73.1645 136.729 74.0544V83.5943C136.728 84.4842 136.373 85.3374 135.742 85.9667C135.111 86.5959 134.256 86.9499 133.364 86.9509ZM118.132 71.4044C117.427 71.4052 116.752 71.6846 116.254 72.1814C115.756 72.6782 115.476 73.3518 115.475 74.0544V83.5943C115.476 84.2969 115.756 84.9704 116.254 85.4672C116.752 85.964 117.427 86.2435 118.132 86.2443H133.364C134.068 86.2435 134.743 85.964 135.241 85.4672C135.739 84.9704 136.019 84.2969 136.02 83.5943V74.0544C136.019 73.3518 135.739 72.6782 135.241 72.1814C134.743 71.6846 134.068 71.4052 133.364 71.4044H118.132Z" fill="#CCCCCC"/>
<path d="M202.512 110.448H152.212C151.46 110.448 150.739 110.15 150.208 109.62C149.676 109.09 149.378 108.371 149.378 107.621C149.378 106.871 149.676 106.152 150.208 105.622C150.739 105.092 151.46 104.794 152.212 104.794H202.512C203.264 104.794 203.984 105.092 204.516 105.622C205.047 106.152 205.346 106.871 205.346 107.621C205.346 108.371 205.047 109.09 204.516 109.62C203.984 110.15 203.264 110.448 202.512 110.448Z" fill="#CCCCCC"/>
<path d="M231.559 119.987H152.212C151.46 119.987 150.739 119.689 150.208 119.159C149.676 118.629 149.378 117.91 149.378 117.161C149.378 116.411 149.676 115.692 150.208 115.162C150.739 114.632 151.46 114.334 152.212 114.334H231.559C232.31 114.334 233.031 114.632 233.562 115.162C234.094 115.692 234.392 116.411 234.392 117.161C234.392 117.91 234.094 118.629 233.562 119.159C233.031 119.689 232.31 119.987 231.559 119.987Z" fill="#CCCCCC"/>
<path d="M133.364 120.517H118.132C117.24 120.516 116.384 120.162 115.753 119.533C115.122 118.904 114.768 118.051 114.767 117.161V107.621C114.768 106.731 115.122 105.878 115.753 105.248C116.384 104.619 117.24 104.265 118.132 104.264H133.364C134.256 104.265 135.111 104.619 135.742 105.248C136.373 105.878 136.728 106.731 136.729 107.621V117.161C136.728 118.051 136.373 118.904 135.742 119.533C135.111 120.162 134.256 120.516 133.364 120.517ZM118.132 104.971C117.427 104.972 116.752 105.251 116.254 105.748C115.756 106.245 115.476 106.918 115.475 107.621V117.161C115.476 117.863 115.756 118.537 116.254 119.034C116.752 119.53 117.427 119.81 118.132 119.811H133.364C134.068 119.81 134.743 119.53 135.241 119.034C135.739 118.537 136.019 117.863 136.02 117.161V107.621C136.019 106.918 135.739 106.245 135.241 105.748C134.743 105.251 134.068 104.972 133.364 104.971H118.132Z" fill="#CCCCCC"/>
<path d="M202.512 144.014H152.212C151.46 144.014 150.739 143.716 150.208 143.186C149.676 142.656 149.378 141.937 149.378 141.187C149.378 140.437 149.676 139.718 150.208 139.188C150.739 138.658 151.46 138.36 152.212 138.36H202.512C203.264 138.36 203.984 138.658 204.516 139.188C205.047 139.718 205.346 140.437 205.346 141.187C205.346 141.937 205.047 142.656 204.516 143.186C203.984 143.716 203.264 144.014 202.512 144.014Z" fill="#F2F2F2"/>
<path d="M231.559 153.554H152.212C151.46 153.554 150.739 153.256 150.208 152.726C149.676 152.196 149.378 151.477 149.378 150.727C149.378 149.977 149.676 149.258 150.208 148.728C150.739 148.198 151.46 147.9 152.212 147.9H231.559C232.31 147.9 233.031 148.198 233.562 148.728C234.094 149.258 234.392 149.977 234.392 150.727C234.392 151.477 234.094 152.196 233.562 152.726C233.031 153.256 232.31 153.554 231.559 153.554Z" fill="#F2F2F2"/>
<path d="M133.364 154.084H118.132C117.24 154.083 116.384 153.729 115.753 153.099C115.122 152.47 114.768 151.617 114.767 150.727V141.187C114.768 140.297 115.122 139.444 115.753 138.815C116.384 138.186 117.24 137.832 118.132 137.831H133.364C134.256 137.832 135.111 138.186 135.742 138.815C136.373 139.444 136.728 140.297 136.729 141.187V150.727C136.728 151.617 136.373 152.47 135.742 153.099C135.111 153.729 134.256 154.083 133.364 154.084Z" fill="#F2F2F2"/>
<path d="M125.748 84.0319L124.927 83.2939C122.015 80.6265 120.092 78.8952 120.092 76.7386C120.085 76.3282 120.16 75.9206 120.313 75.5399C120.467 75.1591 120.696 74.813 120.986 74.5219C121.276 74.2308 121.621 74.0008 122.002 73.8453C122.383 73.6899 122.791 73.6122 123.202 73.6169C123.688 73.6195 124.167 73.7274 124.607 73.9333C125.046 74.1391 125.435 74.4379 125.748 74.8088C126.06 74.4379 126.449 74.1391 126.888 73.9333C127.328 73.7274 127.807 73.6195 128.293 73.6169C128.704 73.6122 129.112 73.6899 129.493 73.8453C129.874 74.0008 130.219 74.2308 130.51 74.5219C130.8 74.813 131.028 75.1591 131.182 75.5399C131.335 75.9206 131.411 76.3282 131.403 76.7386C131.403 78.8952 129.48 80.6265 126.568 83.2939L125.748 84.0319Z" fill="#FF1700"/>
<path d="M125.748 117.598L124.927 116.86C122.015 114.193 120.092 112.462 120.092 110.305C120.085 109.895 120.16 109.487 120.313 109.106C120.467 108.726 120.696 108.379 120.986 108.088C121.276 107.797 121.621 107.567 122.002 107.412C122.383 107.256 122.791 107.179 123.202 107.183C123.688 107.186 124.167 107.294 124.607 107.5C125.046 107.706 125.435 108.004 125.748 108.375C126.06 108.004 126.449 107.705 126.888 107.5C127.328 107.294 127.807 107.186 128.293 107.183C128.704 107.179 129.112 107.256 129.493 107.412C129.874 107.567 130.219 107.797 130.51 108.088C130.8 108.379 131.028 108.726 131.182 109.106C131.335 109.487 131.411 109.895 131.403 110.305C131.403 112.462 129.48 114.193 126.568 116.86L125.748 117.598Z" fill="#FF1700"/>
<path d="M61.3982 111.951H46.1664C45.2742 111.95 44.4189 111.596 43.788 110.967C43.1572 110.338 42.8023 109.485 42.8013 108.595V99.0549C42.8023 98.1649 43.1572 97.3118 43.788 96.6825C44.4189 96.0532 45.2742 95.6993 46.1664 95.6982H61.3982C62.2904 95.6993 63.1457 96.0532 63.7766 96.6825C64.4075 97.3118 64.7623 98.1649 64.7633 99.0549V108.595C64.7623 109.485 64.4075 110.338 63.7766 110.967C63.1457 111.596 62.2904 111.95 61.3982 111.951ZM46.1664 96.4049C45.4621 96.4057 44.7868 96.6851 44.2887 97.1819C43.7907 97.6787 43.5105 98.3523 43.5097 99.0549V108.595C43.5105 109.297 43.7907 109.971 44.2887 110.468C44.7868 110.965 45.4621 111.244 46.1664 111.245H61.3982C62.1026 111.244 62.7778 110.965 63.2759 110.468C63.774 109.971 64.0541 109.297 64.0549 108.595V99.0549C64.0541 98.3523 63.774 97.6787 63.2759 97.1819C62.7778 96.6851 62.1026 96.4057 61.3982 96.4049H46.1664Z" fill="#3F3D56"/>
<path d="M53.7827 109.032L52.9625 108.294C50.0498 105.627 48.1269 103.896 48.1269 101.739C48.1197 101.329 48.1951 100.921 48.3486 100.54C48.5022 100.16 48.7307 99.8134 49.0208 99.5224C49.3108 99.2313 49.6565 99.0012 50.0373 98.8458C50.418 98.6903 50.8262 98.6127 51.2376 98.6174C51.7231 98.62 52.2023 98.7279 52.6418 98.9337C53.0813 99.1396 53.4706 99.4384 53.7827 99.8093C54.0948 99.4384 54.4842 99.1396 54.9237 98.9337C55.3632 98.7279 55.8423 98.62 56.3278 98.6174C56.7392 98.6127 57.1474 98.6904 57.5282 98.8458C57.909 99.0012 58.2546 99.2313 58.5447 99.5224C58.8347 99.8134 59.0633 100.16 59.2168 100.54C59.3703 100.921 59.4457 101.329 59.4385 101.739C59.4385 103.896 57.5156 105.627 54.6029 108.294L53.7827 109.032Z" fill="#FF1700"/>
<path d="M44.9743 180.942L48.914 180.007L47.174 164.405L41.3594 165.785L44.9743 180.942Z" fill="#FFB8B8"/>
<path d="M57.3823 181.854L45.0005 184.791L43.8626 180.02L51.4605 178.217C52.0887 178.068 52.7402 178.044 53.3778 178.146C54.0154 178.248 54.6266 178.474 55.1765 178.812C55.7264 179.15 56.2042 179.592 56.5827 180.114C56.9612 180.636 57.2329 181.227 57.3823 181.854Z" fill="#2F2E41"/>
<path d="M41.1072 170.896L32.5508 141.645L43.2431 139L49.5158 169.978C49.5618 170.205 49.5575 170.439 49.5033 170.664C49.4491 170.889 49.3463 171.1 49.202 171.281C49.0577 171.463 48.8754 171.611 48.6679 171.714C48.4604 171.818 48.2327 171.875 48.0007 171.882L42.6848 172.04C42.6688 172.04 42.6529 172.041 42.637 172.041C42.2922 172.04 41.9567 171.929 41.6809 171.722C41.4051 171.516 41.2038 171.226 41.1072 170.896Z" fill="#2F2E41"/>
<path d="M20.5771 181.04L24.6266 181.04L26.5526 165.459L20.5757 165.46L20.5771 181.04Z" fill="#FFB8B8"/>
<path d="M32.437 184.79L19.7097 184.791L19.7093 179.886L27.5192 179.886C28.8234 179.885 30.0742 180.402 30.9964 181.322C31.9187 182.242 32.4369 183.489 32.437 184.79Z" fill="#2F2E41"/>
<path d="M19.8659 174.987C19.7171 174.843 19.5984 174.671 19.5166 174.482C19.4349 174.292 19.3917 174.088 19.3897 173.881L15.7002 144.701C15.6987 144.28 15.8643 143.876 16.1608 143.577C16.4574 143.277 16.8607 143.107 17.2826 143.103L25.5178 143.044H25.5296C25.9477 143.045 26.3488 143.21 26.6467 143.502C26.9447 143.795 27.1157 144.193 27.1232 144.61L27.561 173.355C27.5676 173.774 27.4075 174.179 27.1158 174.481C26.8241 174.784 26.4244 174.958 26.0039 174.968L21.0048 175.442C20.9971 175.442 20.9894 175.442 20.9817 175.442C20.5641 175.443 20.1631 175.279 19.8659 174.987Z" fill="#2F2E41"/>
<path d="M21.6308 78.4071C26.4358 78.4071 30.331 74.5217 30.331 69.7289C30.331 64.9361 26.4358 61.0508 21.6308 61.0508C16.8259 61.0508 12.9307 64.9361 12.9307 69.7289C12.9307 74.5217 16.8259 78.4071 21.6308 78.4071Z" fill="#FFB8B8"/>
<path d="M10.169 143.177C4.50833 138.765 4.56825 133.619 6.4998 126.744C7.04394 124.807 7.63124 122.845 8.25295 120.767C11.1417 111.112 14.4158 100.169 13.1728 91.1335C12.8323 88.6588 13.7001 86.0557 15.5536 83.992C17.4072 81.9279 19.902 80.7843 22.4098 80.8488C24.9133 80.9154 27.3477 82.1919 29.0885 84.3512C30.8209 86.5 31.6478 94.0557 31.8928 95.1386C33.018 100.109 33.6972 103.109 34.1842 107.895C34.7603 113.553 41.6593 130.469 43.8578 133.306C44.4412 134.055 44.8589 134.919 45.0834 135.84C45.3079 136.762 45.3341 137.721 45.1602 138.653C44.9982 139.54 44.6469 140.382 44.1301 141.122C43.6133 141.862 42.9432 142.482 42.1651 142.941C38.5973 145.116 34.6769 146.655 30.5797 147.488C28.8024 147.832 26.9963 148.006 25.1859 148.006C19.5689 148.006 14.2019 146.32 10.169 143.177Z" fill="#FF1700"/>
<path d="M46.3487 110.482C46.1234 110.053 45.8066 109.679 45.4204 109.385C45.0343 109.091 44.5883 108.886 44.1138 108.782C43.6394 108.679 43.148 108.681 42.6744 108.788C42.2007 108.895 41.7563 109.104 41.3724 109.4L34.7798 105.648L31.5166 109.088L40.9013 114.256C41.4435 114.867 42.1914 115.257 43.0032 115.354C43.8149 115.451 44.6341 115.248 45.3056 114.783C45.9771 114.318 46.4541 113.623 46.6464 112.83C46.8386 112.038 46.7327 111.202 46.3487 110.482Z" fill="#FFB8B8"/>
<path d="M36.2989 113.026L24.4829 109.324C22.8964 108.823 21.5021 107.849 20.4881 106.533C19.474 105.217 18.889 103.622 18.8119 101.964L18.3035 90.5125C18.275 89.8683 18.3769 89.225 18.6034 88.621C18.8298 88.017 19.1761 87.4648 19.6214 86.9973C20.0667 86.5299 20.602 86.1568 21.1952 85.9005C21.7884 85.6442 22.4274 85.5098 23.0739 85.5055C23.7203 85.5011 24.361 85.6269 24.9576 85.8752C25.5543 86.1236 26.0945 86.4894 26.5461 86.9508C26.9977 87.4122 27.3514 87.9598 27.586 88.5607C27.8205 89.1616 27.9312 89.8035 27.9113 90.448L27.5863 100.984L40.162 106.1C40.384 106.19 40.5828 106.329 40.7434 106.507C40.9041 106.685 41.0225 106.896 41.0898 107.126C41.1572 107.355 41.1717 107.597 41.1324 107.833C41.0931 108.069 41.0009 108.293 40.8627 108.489L38.0794 112.426C37.8852 112.702 37.6078 112.909 37.2877 113.017C36.9675 113.125 36.6211 113.128 36.2989 113.026Z" fill="#2F2E41"/>
<path d="M7.60929 80.5276C8.00684 78.1493 7.99223 75.6843 7.97804 73.3004C7.97424 72.6533 7.97034 72.0063 7.97432 71.3605C7.99283 68.3595 8.17954 65.1786 9.40957 62.2504C10.7483 59.0635 13.2274 56.7622 16.0411 56.0946C19.2134 55.341 22.6556 57.0068 23.6919 59.7498C24.377 59.3639 25.1394 59.1344 25.9241 59.078C26.7089 59.0216 27.4964 59.1396 28.2298 59.4236C28.9633 59.7076 29.6244 60.1504 30.1655 60.7202C30.7066 61.2899 31.1141 61.9723 31.3587 62.7182C31.6033 63.4641 31.6789 64.2549 31.5799 65.0334C31.481 65.812 31.21 66.5589 30.7866 67.2204C30.3632 67.8818 29.7978 68.4412 29.1314 68.8583C28.4649 69.2754 27.7139 69.5397 26.9326 69.6322L26.7997 69.6439L25.7631 66.9567C25.7572 67.0038 25.7516 67.0514 25.7459 67.0994C25.6799 67.6566 25.6116 68.2327 25.1504 68.5655C24.5747 68.9809 23.8576 70.3482 24.0671 71.7334C24.1977 72.4421 24.3924 73.1376 24.6488 73.8114C24.9337 74.5511 25.1405 75.3184 25.2659 76.1008C25.3977 77.1038 25.1346 78.1187 24.5318 78.9323C24.3532 79.1697 24.1279 79.3683 23.8698 79.5161C23.6117 79.6638 23.3261 79.7576 23.0304 79.7916L11.3453 80.9969L10.8228 77.1037L7.49902 81.187L7.60929 80.5276Z" fill="#2F2E41"/>
<path d="M68.3658 185H0.354227C0.26028 185 0.170181 184.963 0.10375 184.897C0.03732 184.83 0 184.74 0 184.647C0 184.553 0.03732 184.463 0.10375 184.397C0.170181 184.331 0.26028 184.293 0.354227 184.293H68.3658C68.4598 184.293 68.5499 184.331 68.6163 184.397C68.6827 184.463 68.72 184.553 68.72 184.647C68.72 184.74 68.6827 184.83 68.6163 184.897C68.5499 184.963 68.4598 185 68.3658 185Z" fill="#CCCCCC"/>
</g>
<defs>
<clipPath id="clip0_180_2149">
<rect width="258" height="185" fill="white"/>
</clipPath>
</defs>
</svg>
