<svg width="217" height="244" viewBox="0 0 217 244" fill="none" xmlns="http://www.w3.org/2000/svg">
<g clip-path="url(#clip0_180_3574)">
<path d="M123.019 188.006C174.923 188.006 217 145.92 217 94.0031C217 42.0866 174.923 0 123.019 0C71.1144 0 29.0376 42.0866 29.0376 94.0031C29.0376 145.92 71.1144 188.006 123.019 188.006Z" fill="white"/>
<path d="M184.434 42.038H12.2735C11.9043 42.0301 11.6114 41.7244 11.6193 41.3551C11.627 40.997 11.9154 40.7085 12.2735 40.7008H184.434C184.803 40.7087 185.096 41.0144 185.088 41.3837C185.081 41.7418 184.792 42.0303 184.434 42.038Z" fill="#CACACA"/>
<path d="M125.762 64.5707H78.1698C74.5951 64.5707 71.6973 67.4692 71.6973 71.0447V71.0448C71.6973 74.6203 74.5951 77.5188 78.1698 77.5188H125.762C129.336 77.5188 132.234 74.6203 132.234 71.0447C132.234 67.4692 129.336 64.5707 125.762 64.5707Z" fill="#E7E7E7"/>
<path d="M47.4252 90.4669H156.507C160.081 90.4669 162.979 93.3655 162.979 96.941C162.979 100.517 160.081 103.415 156.507 103.415H47.4252C43.8505 103.415 40.9526 100.517 40.9526 96.941C40.9526 93.3655 43.8505 90.4669 47.4252 90.4669Z" fill="#E7E7E7"/>
<path d="M47.4252 116.363H156.507C160.081 116.363 162.979 119.262 162.979 122.837C162.979 126.413 160.081 129.311 156.507 129.311H47.4252C43.8505 129.311 40.9526 126.413 40.9526 122.837C40.9526 119.262 43.8505 116.363 47.4252 116.363Z" fill="#E7E7E7"/>
<path d="M33.9075 243.431L33.6508 243.405C24.9406 242.507 17.0666 237.821 12.1207 230.594C10.766 228.58 9.6702 226.403 8.85915 224.115L8.78119 223.897L9.01198 223.879C11.7674 223.657 14.5981 223.189 15.8555 222.967L7.74698 220.219L7.69684 219.978C7.21611 217.719 8.15791 215.395 10.0754 214.108C11.9981 212.759 14.5478 212.716 16.515 213.999C17.3978 214.563 18.3212 215.121 19.2142 215.662C22.2827 217.518 25.4557 219.438 27.8346 222.065C31.442 226.127 33.0232 231.602 32.1378 236.963L33.9075 243.431Z" fill="#F2F2F2"/>
<path d="M63.382 239.397L67.378 239.397L69.2795 223.978L63.3809 223.979L63.382 239.397Z" fill="#A0616A"/>
<path d="M63.2409 243.567L75.5304 243.567V243.411C75.5302 240.769 73.3887 238.627 70.747 238.627L68.5019 236.923L64.3135 238.627L63.2407 238.627L63.2409 243.567Z" fill="#2F2E41"/>
<path d="M31.3545 228.326L34.551 230.724L45.3229 219.532L40.6046 215.992L31.3545 228.326Z" fill="#A0616A"/>
<path d="M28.7397 231.577L38.5704 238.953L38.6637 238.829C40.2489 236.715 39.8211 233.716 37.708 232.131L36.9342 229.42L32.5617 228.269L31.7036 227.625L28.7397 231.577Z" fill="#2F2E41"/>
<path d="M44.6392 167.041C44.6392 167.041 44.8598 173.061 45.1381 177.888C45.1838 178.68 43.3295 179.54 43.3775 180.401C43.4093 180.972 43.7579 181.528 43.7903 182.123C43.8244 182.752 43.3432 183.309 43.3775 183.959C43.411 184.594 43.9599 185.323 43.9931 185.973C44.3494 192.971 45.6413 201.349 44.3477 203.691C43.7102 204.845 35.584 220.835 35.584 220.835C35.584 220.835 40.1116 227.628 41.4052 225.364C43.1138 222.373 56.2817 208.382 56.2817 205.71C56.2817 203.041 59.3281 183.04 59.3281 183.04L61.4523 194.876L62.4263 197.222L62.1203 198.598L62.7497 200.456L62.7837 202.295L63.3965 205.71C63.3965 205.71 61.5532 232.312 62.5913 233.053C63.6326 233.797 68.6745 235.133 69.2695 233.797C69.8613 232.461 73.7135 206.033 73.7135 206.033C73.7135 206.033 74.3345 193.922 75.0072 182.665C75.0459 182.012 75.5052 181.222 75.5408 180.579C75.5828 179.831 75.2918 178.861 75.3306 178.136C75.3726 177.305 75.7413 176.72 75.7769 175.924C76.0517 169.775 74.5086 162.286 74.0171 161.549C72.5326 159.323 71.197 157.544 71.197 157.544C71.197 157.544 51.2035 150.974 45.8609 157.65L44.6392 167.041Z" fill="#2F2E41"/>
<path d="M64.5798 105.144L56.654 103.559L52.9553 108.579C46.0537 115.367 45.9498 121.358 47.1818 130.96V144.437L46.2901 153.472C46.2901 153.472 43.1334 160.076 46.3892 161.614C49.645 163.152 71.031 163.021 73.0729 162.407C75.1147 161.793 73.3449 161.039 72.8087 158.179C71.8015 152.805 72.4752 155.397 72.5445 153.686C73.5383 129.144 71.2235 119.069 70.9885 116.42L66.9576 109.108L64.5798 105.144Z" fill="#3F3D56"/>
<path d="M106.354 124.932C105.528 126.497 103.589 127.097 102.024 126.27C101.857 126.182 101.698 126.08 101.55 125.964L84.4331 136.834L84.4825 130.916L101.11 121.264C102.294 119.936 104.331 119.82 105.659 121.004C106.77 121.996 107.057 123.619 106.354 124.932Z" fill="#A0616A"/>
<path d="M58.3219 111.998L56.3732 111.792C54.5726 111.605 52.806 112.376 51.7187 113.824C51.3023 114.373 51.0032 115.002 50.84 115.671L50.8388 115.677C50.35 117.692 51.1167 119.804 52.7843 121.036L59.5148 125.999C64.2381 132.383 73.1149 136.618 83.5275 140.059L99.7126 130.005L93.9879 123.07L82.8865 129.021L66.3849 116.244L66.3754 116.236L60.0948 112.189L58.3219 111.998Z" fill="#3F3D56"/>
<path d="M61.9018 101.251C67.0064 101.251 71.1445 97.1123 71.1445 92.0065C71.1445 86.9008 67.0064 82.7617 61.9018 82.7617C56.7973 82.7617 52.6592 86.9008 52.6592 92.0065C52.6592 97.1123 56.7973 101.251 61.9018 101.251Z" fill="#A0616A"/>
<path d="M62.1151 101.253C62.0406 101.256 61.9659 101.257 61.8913 101.259C61.8593 101.342 61.8249 101.424 61.7852 101.505L62.1151 101.253Z" fill="#2F2E41"/>
<path d="M64.6519 92.2629C64.6664 92.354 64.6885 92.4437 64.7181 92.5311C64.7059 92.4395 64.6837 92.3496 64.6519 92.2629Z" fill="#2F2E41"/>
<path d="M71.2623 83.1573C70.8819 84.3389 70.5423 82.8401 69.2908 83.1096C67.7853 83.4339 66.0334 83.3226 64.8005 82.3995C62.9635 81.0514 60.5829 80.6885 58.4278 81.428C56.3182 82.1745 52.7839 82.7009 52.2342 84.8705C52.0431 85.6247 51.9673 86.4431 51.5041 87.0682C51.0992 87.6147 50.4601 87.9263 49.9257 88.3468C48.121 89.767 49.5003 93.8019 50.3544 95.9339C51.2085 98.0658 53.1678 99.6189 55.3218 100.414C57.406 101.184 59.6681 101.32 61.8914 101.259C62.2781 100.256 62.111 99.0976 61.792 98.0577C61.4465 96.9319 60.935 95.8453 60.7907 94.6765C60.6464 93.5078 60.9633 92.1802 61.9431 91.5271C62.8437 90.9269 64.3092 91.2925 64.6518 92.263C64.4519 91.0497 65.6806 89.8756 66.9477 89.6691C68.308 89.4474 69.6683 89.9387 71.0247 90.1832C72.3811 90.4277 71.8997 84.7158 71.2623 83.1573Z" fill="#2F2E41"/>
<path d="M122.954 107.299C123.816 96.8862 116.075 87.746 105.664 86.8842C95.2536 86.0224 86.1156 93.7653 85.2539 104.178C84.3923 114.591 92.1334 123.732 102.544 124.593C112.955 125.455 122.093 117.712 122.954 107.299Z" fill="#FF1700"/>
<path d="M109.072 97.8559L104.104 102.826L99.1354 97.8559C98.3312 97.0514 97.0271 97.0514 96.2228 97.8559C95.4186 98.6604 95.4186 99.9647 96.2228 100.769L101.191 105.739L96.2228 110.709C95.4193 111.514 95.4205 112.818 96.2256 113.622C97.0295 114.424 98.3315 114.424 99.1354 113.622L104.104 108.652L109.072 113.622C109.878 114.426 111.182 114.424 111.985 113.619C112.788 112.815 112.788 111.513 111.985 110.709L107.017 105.739L111.985 100.769C112.789 99.9647 112.789 98.6604 111.985 97.8559C111.181 97.0514 109.877 97.0514 109.072 97.8559Z" fill="white"/>
<path d="M96.6503 89.8373C97.2078 91.5173 96.2982 93.3313 94.6186 93.889C94.4395 93.9484 94.2555 93.9919 94.0688 94.019L90.0615 113.899L85.8257 109.766L90.374 91.0831C90.2358 89.3087 91.5618 87.7582 93.3357 87.6199C94.8201 87.5042 96.1904 88.4209 96.6503 89.8373Z" fill="#A0616A"/>
<path d="M54.0669 115.552L52.5688 116.815C51.1875 117.985 50.5209 119.794 50.8126 121.581C50.9204 122.262 51.167 122.913 51.537 123.495L51.5401 123.499C52.6555 125.247 54.71 126.156 56.7533 125.805L64.9936 124.383C72.869 125.394 82.0699 121.919 91.7609 116.785L95.7124 98.1428L86.7461 97.4736L83.3538 109.606L62.712 112.671L62.6998 112.673L55.4318 114.404L54.0669 115.552Z" fill="#3F3D56"/>
<path d="M100.988 243.886L0.439135 244C0.195824 243.999 -0.000785749 243.801 2.3611e-06 243.558C0.000783072 243.316 0.19693 243.119 0.439135 243.119L100.988 243.005C101.231 243.006 101.428 243.204 101.427 243.447C101.426 243.689 101.23 243.885 100.988 243.886Z" fill="#CACACA"/>
<path d="M21.0079 33.5685C22.736 33.5685 24.1369 32.136 24.1369 30.369C24.1369 28.602 22.736 27.1696 21.0079 27.1696C19.2798 27.1696 17.8789 28.602 17.8789 30.369C17.8789 32.136 19.2798 33.5685 21.0079 33.5685Z" fill="#3F3D56"/>
<path d="M31.817 33.5685C33.5451 33.5685 34.946 32.136 34.946 30.369C34.946 28.602 33.5451 27.1696 31.817 27.1696C30.0889 27.1696 28.688 28.602 28.688 30.369C28.688 32.136 30.0889 33.5685 31.817 33.5685Z" fill="#3F3D56"/>
<path d="M42.6265 33.5685C44.3546 33.5685 45.7555 32.136 45.7555 30.369C45.7555 28.602 44.3546 27.1696 42.6265 27.1696C40.8985 27.1696 39.4976 28.602 39.4976 30.369C39.4976 32.136 40.8985 33.5685 42.6265 33.5685Z" fill="#3F3D56"/>
<path d="M54.9515 32.8978C54.8554 32.8978 54.7595 32.8605 54.687 32.7864L52.5758 30.6277C52.435 30.4839 52.435 30.254 52.5758 30.1102L54.687 27.9516C54.8303 27.8056 55.0648 27.8032 55.2102 27.9458C55.3564 28.0887 55.3589 28.3231 55.216 28.4691L53.3579 30.3689L55.216 32.2689C55.3589 32.4149 55.3564 32.6493 55.2102 32.7922C55.1383 32.8627 55.0449 32.8978 54.9515 32.8978Z" fill="#3F3D56"/>
<path d="M58.4994 32.8978C58.406 32.8978 58.3126 32.8627 58.2407 32.7923C58.0945 32.6493 58.092 32.4151 58.2349 32.2689L60.0929 30.369L58.2349 28.4692C58.092 28.3232 58.0946 28.0888 58.2407 27.9458C58.3865 27.8027 58.621 27.8054 58.7639 27.9516L60.875 30.1102C61.0157 30.254 61.0157 30.4839 60.875 30.6277L58.7639 32.7865C58.6915 32.8606 58.5955 32.8978 58.4994 32.8978Z" fill="#3F3D56"/>
<path d="M168.949 27.5399H165.024C164.576 27.5399 164.213 27.9026 164.213 28.3504V32.2808C164.213 32.7286 164.576 33.0913 165.024 33.0913H168.949C169.397 33.0913 169.763 32.7286 169.763 32.2808V28.3504C169.763 27.9026 169.397 27.5399 168.949 27.5399Z" fill="#3F3D56"/>
<path d="M159.329 27.5399H155.404C154.956 27.5399 154.593 27.9026 154.593 28.3504V32.2808C154.593 32.7286 154.956 33.0913 155.404 33.0913H159.329C159.777 33.0913 160.143 32.7286 160.143 32.2808V28.3504C160.143 27.9026 159.777 27.5399 159.329 27.5399Z" fill="#3F3D56"/>
<path d="M178.015 27.725H174.089C173.641 27.725 173.279 28.0877 173.279 28.5355V32.4658C173.279 32.9137 173.641 33.2763 174.089 33.2763H178.015C178.463 33.2763 178.829 32.9137 178.829 32.4658V28.5355C178.829 28.0877 178.463 27.725 178.015 27.725Z" fill="#3F3D56"/>
<path d="M118.843 29.2202H87.463C86.9154 29.2202 86.4751 29.6643 86.4751 30.2084C86.4751 30.7524 86.9154 31.1965 87.463 31.1965H118.843C119.387 31.1965 119.831 30.7524 119.831 30.2084C119.831 29.6644 119.387 29.2202 118.843 29.2202Z" fill="#3F3D56"/>
</g>
<defs>
<clipPath id="clip0_180_3574">
<rect width="217" height="244" fill="white"/>
</clipPath>
</defs>
</svg>
