<svg width="318" height="294" viewBox="0 0 318 294" fill="none" xmlns="http://www.w3.org/2000/svg">
<g opacity="0.5">
<path opacity="0.5" d="M227.582 49.1533H58.2188V276.602H227.582V49.1533Z" fill="url(#paint0_linear_180_4216)"/>
</g>
<path d="M224.496 52.2412H60.4238V271.756H224.496V52.2412Z" fill="#F2F2F2"/>
<path d="M129.669 61.4961H73.2148V63.2588H129.669V61.4961Z" fill="#E0E0E0"/>
<path opacity="0.7" d="M129.669 69.4297H73.2148V71.1924H129.669V69.4297Z" fill="#6C63FF"/>
<path d="M194.505 61.4961H138.051V63.2588H194.505V61.4961Z" fill="#E0E0E0"/>
<path d="M203.324 111.749H146.869V113.512H203.324V111.749Z" fill="#E0E0E0"/>
<path d="M204.65 116.596H148.195V118.358H204.65V116.596Z" fill="#E0E0E0"/>
<path d="M207.296 121.446H150.842V123.208H207.296V121.446Z" fill="#E0E0E0"/>
<path d="M203.324 189.767H146.869V191.53H203.324V189.767Z" fill="#E0E0E0"/>
<path d="M204.65 194.617H148.195V196.38H204.65V194.617Z" fill="#E0E0E0"/>
<path d="M207.296 199.464H150.842V201.227H207.296V199.464Z" fill="#E0E0E0"/>
<g opacity="0.5">
<path opacity="0.5" d="M133.638 93.6733H73.6562V154.502H133.638V93.6733Z" fill="url(#paint1_linear_180_4216)"/>
</g>
<path d="M133.073 94.998H74.0352V153.181H133.073V94.998Z" fill="#F5F5F5"/>
<g opacity="0.5">
<path opacity="0.5" d="M131.18 98.5234H76.1152V136.43H131.18V98.5234Z" fill="url(#paint2_linear_180_4216)"/>
</g>
<path d="M130.8 98.9648H76.4941V135.551H130.8V98.9648Z" fill="white"/>
<path opacity="0.4" d="M71.8907 134.23L85.5662 113.07L91.2993 122.325L103.649 109.545L114.235 122.325L123.496 103.374L147.312 141.28L70.127 138.635L71.8907 134.23Z" fill="#6C63FF"/>
<path opacity="0.4" d="M82.4762 108.22C84.6684 108.22 86.4455 106.444 86.4455 104.253C86.4455 102.062 84.6684 100.286 82.4762 100.286C80.284 100.286 78.5068 102.062 78.5068 104.253C78.5068 106.444 80.284 108.22 82.4762 108.22Z" fill="#6C63FF"/>
<g opacity="0.5">
<path opacity="0.5" d="M133.638 171.695H73.6562V232.524H133.638V171.695Z" fill="url(#paint3_linear_180_4216)"/>
</g>
<path d="M133.073 173.016H74.0352V231.199H133.073V173.016Z" fill="#F5F5F5"/>
<g opacity="0.5">
<path opacity="0.5" d="M131.18 176.545H76.1152V214.452H131.18V176.545Z" fill="url(#paint4_linear_180_4216)"/>
</g>
<path d="M130.8 176.983H76.4941V213.569H130.8V176.983Z" fill="white"/>
<path opacity="0.4" d="M71.8907 212.247L85.5662 191.088L91.2993 200.346L103.649 187.562L114.235 200.346L123.496 181.391L147.312 219.298L70.127 216.656L71.8907 212.247Z" fill="#BDBDBD"/>
<path opacity="0.4" d="M82.4762 186.242C84.6684 186.242 86.4455 184.465 86.4455 182.275C86.4455 180.084 84.6684 178.308 82.4762 178.308C80.284 178.308 78.5068 180.084 78.5068 182.275C78.5068 184.465 80.284 186.242 82.4762 186.242Z" fill="#BDBDBD"/>
<g opacity="0.5">
<path opacity="0.5" d="M127.443 37.916L83.082 261.002L249.197 293.995L293.558 70.9084L127.443 37.916Z" fill="url(#paint5_linear_180_4216)"/>
</g>
<path d="M129.003 41.3728L86.1895 256.677L247.115 288.639L289.928 73.3344L129.003 41.3728Z" fill="white"/>
<path d="M252.933 76.3156L138.727 53.6328L138.383 55.3617L252.59 78.0445L252.933 76.3156Z" fill="#E0E0E0"/>
<path d="M220.437 239.742L106.23 217.06L105.887 218.788L220.093 241.471L220.437 239.742Z" fill="#E0E0E0"/>
<path d="M192.501 244.527L104.25 227L103.906 228.728L192.157 246.256L192.501 244.527Z" fill="#E0E0E0"/>
<path opacity="0.7" d="M135.149 243.476L102.273 236.946L101.93 238.675L134.805 245.205L135.149 243.476Z" fill="#6C63FF"/>
<path opacity="0.7" d="M193.848 74.9196L136.746 63.5786L136.402 65.3075L193.504 76.6485L193.848 74.9196Z" fill="#6C63FF"/>
<path d="M237.73 93.9694L134.773 73.521L134.43 75.2499L237.386 95.6983L237.73 93.9694Z" fill="#E0E0E0"/>
<path opacity="0.7" d="M157.882 88.4498L132.793 83.4668L132.449 85.1957L157.538 90.1787L157.882 88.4498Z" fill="#3AD29F"/>
<path d="M245.025 116.093L130.818 93.4106L130.475 95.1395L244.681 117.822L245.025 116.093Z" fill="#E0E0E0"/>
<g opacity="0.5">
<path opacity="0.5" d="M140.879 135.413L129.188 194.209L231.711 214.572L243.403 155.776L140.879 135.413Z" fill="url(#paint6_linear_180_4216)"/>
</g>
<path d="M242.688 156.078L141.461 135.974L130.027 193.474L231.254 213.579L242.688 156.078Z" fill="white"/>
<path d="M243.047 126.04L128.84 103.357L128.496 105.086L242.703 127.769L243.047 126.04Z" fill="#E0E0E0"/>
<path d="M163.062 148.353L150.516 145.861L142.176 187.798L154.723 190.29L163.062 148.353Z" fill="#6C63FF"/>
<path d="M182.804 166.656L170.258 164.165L164.67 192.267L177.216 194.759L182.804 166.656Z" fill="#3AD29F"/>
<path d="M202.724 184.095L190.178 181.603L187.169 196.733L199.715 199.225L202.724 184.095Z" fill="#F55F44"/>
<path d="M228.314 172.998L215.768 170.506L209.663 201.204L222.21 203.696L228.314 172.998Z" fill="#FDD835"/>
<path d="M264.919 132.116C259.477 126.46 252.958 121.948 245.746 118.847C238.533 115.746 230.773 114.118 222.921 114.059C215.07 114 207.286 115.511 200.028 118.503C192.769 121.495 186.183 125.908 180.656 131.482C158.374 153.933 157.996 190.488 179.792 213.414C189.367 223.487 202.199 229.848 216.017 231.372C229.834 232.896 243.746 229.484 255.288 221.741L297.848 265.981C298.375 266.529 299.098 266.845 299.858 266.859C300.618 266.874 301.353 266.587 301.901 266.06L312.506 255.869C313.053 255.343 313.369 254.62 313.384 253.861C313.399 253.101 313.112 252.367 312.585 251.819L270.036 207.583C278.195 196.409 282.153 182.72 281.218 168.919C280.282 155.118 274.511 142.088 264.919 132.116ZM251.663 203.246C245.659 209.015 238.078 212.874 229.879 214.337C221.68 215.8 213.231 214.8 205.601 211.464C197.97 208.128 191.501 202.606 187.011 195.595C182.521 188.585 180.212 180.401 180.376 172.08C180.54 163.758 183.169 155.671 187.931 148.843C192.693 142.014 199.375 136.75 207.13 133.716C214.886 130.683 223.368 130.016 231.503 131.799C239.638 133.583 247.061 137.738 252.833 143.738C256.666 147.722 259.677 152.422 261.692 157.568C263.708 162.715 264.689 168.208 264.581 173.734C264.472 179.26 263.275 184.71 261.059 189.774C258.842 194.838 255.649 199.416 251.663 203.246Z" fill="url(#paint7_linear_180_4216)"/>
<path d="M191.287 161.198C186.551 161.198 186.544 168.555 191.287 168.555C196.031 168.555 196.031 161.198 191.287 161.198Z" fill="url(#paint8_linear_180_4216)"/>
<path d="M224.301 137.634C211.554 137.347 199.956 143.738 193.788 153.385C191.775 156.533 197.49 159.315 199.491 156.182C204.597 148.195 214.3 143.122 224.795 143.387C235.793 143.662 245.801 149.95 251.1 158.677C253.109 161.987 258.378 158.979 256.388 155.687C249.944 145.119 237.466 137.948 224.301 137.634Z" fill="url(#paint9_linear_180_4216)"/>
<path d="M269.536 129.881C264.094 124.225 257.575 119.713 250.363 116.612C243.15 113.511 235.39 111.883 227.539 111.824C219.687 111.765 211.903 113.276 204.645 116.268C197.386 119.26 190.8 123.673 185.274 129.247C162.991 151.698 162.613 188.253 184.409 211.179C193.984 221.251 206.817 227.612 220.635 229.135C234.452 230.658 248.364 227.246 259.905 219.502L302.462 263.746C302.988 264.294 303.711 264.61 304.471 264.625C305.231 264.639 305.966 264.352 306.514 263.826L317.119 253.635C317.667 253.108 317.983 252.385 317.998 251.626C318.013 250.866 317.725 250.132 317.198 249.585L274.638 205.344C282.798 194.172 286.758 180.485 285.825 166.685C284.892 152.885 279.125 139.855 269.536 129.881ZM256.28 200.981C250.276 206.749 242.695 210.609 234.496 212.072C226.297 213.535 217.848 212.535 210.218 209.199C202.588 205.863 196.118 200.341 191.628 193.33C187.138 186.32 184.829 178.136 184.993 169.814C185.157 161.493 187.786 153.406 192.548 146.577C197.311 139.749 203.992 134.485 211.748 131.451C219.503 128.418 227.985 127.751 236.12 129.534C244.255 131.318 251.678 135.473 257.451 141.473C261.284 145.457 264.294 150.156 266.309 155.303C268.325 160.45 269.306 165.943 269.198 171.469C269.089 176.995 267.892 182.445 265.676 187.509C263.459 192.573 260.267 197.15 256.28 200.981Z" fill="#FF1700"/>
<path d="M195.906 158.96C191.17 158.96 191.163 166.316 195.906 166.316C200.65 166.316 200.65 158.96 195.906 158.96Z" fill="#FF1700"/>
<path d="M228.918 135.4C216.171 135.113 204.573 141.503 198.406 151.151C196.393 154.299 202.107 157.08 204.108 153.948C209.215 145.961 218.917 140.888 229.412 141.152C240.41 141.428 250.419 147.716 255.717 156.442C257.727 159.753 262.995 156.744 261.005 153.453C254.55 142.854 242.087 135.683 228.918 135.4Z" fill="#FF1700"/>
<path d="M47.189 250.596H45.8672V258.089H47.189V250.596Z" fill="#47E6B1"/>
<path d="M50.2793 255.001V253.68H42.7825V255.001H50.2793Z" fill="#47E6B1"/>
<path d="M215.98 3.007C215.615 2.84827 215.321 2.56086 215.155 2.19956C214.988 1.83827 214.96 1.42838 215.077 1.04806C215.095 0.989226 215.107 0.928407 215.111 0.866883C215.123 0.691964 215.078 0.517875 214.983 0.370673C214.887 0.223471 214.747 0.111073 214.582 0.0503043C214.418 -0.0104649 214.238 -0.0163374 214.07 0.0335661C213.902 0.0834697 213.754 0.186465 213.649 0.327135C213.613 0.376237 213.583 0.429447 213.559 0.485663C213.4 0.850383 213.112 1.14392 212.751 1.3103C212.389 1.47667 211.979 1.50424 211.599 1.38776C211.54 1.36929 211.479 1.35789 211.417 1.35379C211.241 1.34106 211.065 1.38622 210.917 1.48239C210.769 1.57857 210.656 1.72051 210.595 1.88665C210.535 2.05279 210.531 2.23404 210.583 2.40287C210.635 2.57171 210.741 2.71889 210.885 2.82205C210.934 2.85837 210.987 2.88877 211.043 2.91264C211.408 3.07136 211.702 3.35878 211.869 3.72007C212.035 4.08137 212.063 4.49126 211.946 4.87158C211.928 4.93041 211.916 4.99123 211.912 5.05276C211.898 5.23004 211.943 5.40706 212.039 5.55657C212.135 5.70609 212.278 5.81982 212.445 5.88029C212.613 5.94076 212.795 5.94461 212.965 5.89125C213.135 5.83789 213.282 5.73027 213.385 5.58495C213.421 5.53585 213.452 5.48264 213.476 5.42643C213.634 5.06171 213.922 4.76817 214.284 4.60179C214.645 4.43542 215.055 4.40784 215.436 4.52433C215.495 4.5428 215.556 4.5542 215.617 4.5583C215.792 4.57026 215.966 4.52526 216.114 4.43001C216.261 4.33477 216.373 4.19442 216.434 4.02996C216.495 3.8655 216.501 3.68578 216.451 3.5177C216.401 3.34963 216.298 3.20224 216.157 3.09759C216.102 3.05991 216.042 3.02946 215.98 3.007Z" fill="#4D8AF0"/>
<path d="M51.9062 58.548C51.5413 58.3893 51.2476 58.1019 51.0811 57.7406C50.9146 57.3793 50.887 56.9694 51.0036 56.5891C51.0221 56.5302 51.0335 56.4694 51.0376 56.4079C51.0496 56.233 51.0045 56.0589 50.9092 55.9117C50.8139 55.7645 50.6735 55.6521 50.5089 55.5913C50.3444 55.5305 50.1646 55.5247 49.9964 55.5746C49.8282 55.6245 49.6807 55.7275 49.576 55.8681C49.5397 55.9172 49.5092 55.9705 49.4854 56.0267C49.3265 56.3914 49.0389 56.6849 48.6774 56.8513C48.3159 57.0177 47.9058 57.0453 47.5252 56.9288C47.4664 56.9103 47.4055 56.8989 47.344 56.8948C47.1689 56.8828 46.9947 56.9278 46.8475 57.0231C46.7002 57.1183 46.5877 57.2587 46.5269 57.4231C46.4661 57.5876 46.4602 57.7673 46.5101 57.9354C46.5601 58.1035 46.6631 58.2509 46.8039 58.3555C46.853 58.3918 46.9063 58.4222 46.9625 58.4461C47.3275 58.6048 47.6212 58.8922 47.7876 59.2535C47.9541 59.6148 47.9817 60.0247 47.8651 60.405C47.8467 60.4639 47.8353 60.5247 47.8312 60.5862C47.8192 60.7611 47.8642 60.9352 47.9595 61.0824C48.0548 61.2296 48.1953 61.342 48.3598 61.4028C48.5244 61.4636 48.7042 61.4694 48.8724 61.4195C49.0406 61.3696 49.188 61.2666 49.2927 61.126C49.3291 61.0769 49.3595 61.0237 49.3834 60.9674C49.5422 60.6027 49.8298 60.3092 50.1913 60.1428C50.5528 59.9764 50.963 59.9489 51.3435 60.0653C51.4024 60.0838 51.4632 60.0952 51.5248 60.0993C51.6998 60.1113 51.874 60.0663 52.0213 59.971C52.1686 59.8758 52.2811 59.7354 52.3419 59.571C52.4027 59.4065 52.4085 59.2268 52.3586 59.0587C52.3087 58.8906 52.2056 58.7433 52.0649 58.6386C52.0157 58.6023 51.9625 58.5719 51.9062 58.548Z" fill="#FDD835"/>
<path d="M285.225 287.756C284.86 287.597 284.566 287.31 284.399 286.948C284.233 286.587 284.205 286.177 284.322 285.797C284.34 285.738 284.352 285.677 284.356 285.616C284.368 285.441 284.323 285.267 284.228 285.119C284.132 284.972 283.992 284.86 283.827 284.799C283.663 284.738 283.483 284.732 283.315 284.782C283.147 284.832 282.999 284.935 282.894 285.076C282.858 285.125 282.828 285.178 282.804 285.234C282.645 285.599 282.357 285.893 281.996 286.059C281.634 286.225 281.224 286.253 280.844 286.137C280.785 286.118 280.724 286.107 280.662 286.103C280.487 286.091 280.313 286.136 280.166 286.231C280.019 286.326 279.906 286.466 279.845 286.631C279.784 286.795 279.779 286.975 279.829 287.143C279.878 287.311 279.982 287.459 280.122 287.563C280.171 287.6 280.225 287.63 280.281 287.654C280.646 287.813 280.94 288.1 281.106 288.461C281.272 288.823 281.3 289.233 281.184 289.613C281.165 289.672 281.154 289.732 281.15 289.794C281.138 289.969 281.183 290.143 281.278 290.29C281.373 290.437 281.514 290.55 281.678 290.611C281.843 290.671 282.023 290.677 282.191 290.627C282.359 290.577 282.506 290.474 282.611 290.334C282.647 290.285 282.678 290.231 282.702 290.175C282.861 289.811 283.148 289.517 283.51 289.351C283.871 289.184 284.281 289.157 284.662 289.273C284.721 289.292 284.782 289.303 284.843 289.307C285.018 289.319 285.192 289.274 285.34 289.179C285.487 289.084 285.599 288.943 285.66 288.779C285.721 288.614 285.727 288.435 285.677 288.266C285.627 288.098 285.524 287.951 285.383 287.846C285.334 287.81 285.281 287.78 285.225 287.756Z" fill="#FDD835"/>
<path d="M121.29 31.0852C122.752 31.0852 123.938 29.9006 123.938 28.4394C123.938 26.9781 122.752 25.7935 121.29 25.7935C119.828 25.7935 118.643 26.9781 118.643 28.4394C118.643 29.9006 119.828 31.0852 121.29 31.0852Z" fill="#F55F44"/>
<path d="M310.94 64.1419C312.403 64.1419 313.588 62.9573 313.588 61.496C313.588 60.0347 312.403 58.8501 310.94 58.8501C309.478 58.8501 308.293 60.0347 308.293 61.496C308.293 62.9573 309.478 64.1419 310.94 64.1419Z" fill="#F55F44"/>
<path d="M295.948 143.043C297.41 143.043 298.596 141.859 298.596 140.397C298.596 138.936 297.41 137.751 295.948 137.751C294.486 137.751 293.301 138.936 293.301 140.397C293.301 141.859 294.486 143.043 295.948 143.043Z" fill="#4D8AF0"/>
<path opacity="0.5" d="M2.64748 13.451C4.10965 13.451 5.29497 12.2664 5.29497 10.8051C5.29497 9.34379 4.10965 8.15918 2.64748 8.15918C1.18532 8.15918 0 9.34379 0 10.8051C0 12.2664 1.18532 13.451 2.64748 13.451Z" fill="#47E6B1"/>
<defs>
<linearGradient id="paint0_linear_180_4216" x1="142.9" y1="276.602" x2="142.9" y2="49.1533" gradientUnits="userSpaceOnUse">
<stop stop-color="#808080" stop-opacity="0.25"/>
<stop offset="0.54" stop-color="#808080" stop-opacity="0.12"/>
<stop offset="1" stop-color="#808080" stop-opacity="0.1"/>
</linearGradient>
<linearGradient id="paint1_linear_180_4216" x1="16535.1" y1="24992.3" x2="16535.1" y2="15189" gradientUnits="userSpaceOnUse">
<stop stop-color="#808080" stop-opacity="0.25"/>
<stop offset="0.54" stop-color="#808080" stop-opacity="0.12"/>
<stop offset="1" stop-color="#808080" stop-opacity="0.1"/>
</linearGradient>
<linearGradient id="paint2_linear_180_4216" x1="15188" y1="13799.6" x2="15188" y2="9992.6" gradientUnits="userSpaceOnUse">
<stop stop-color="#808080" stop-opacity="0.25"/>
<stop offset="0.54" stop-color="#808080" stop-opacity="0.12"/>
<stop offset="1" stop-color="#808080" stop-opacity="0.1"/>
</linearGradient>
<linearGradient id="paint3_linear_180_4216" x1="16535.1" y1="37644.3" x2="16535.1" y2="27841.1" gradientUnits="userSpaceOnUse">
<stop stop-color="#808080" stop-opacity="0.25"/>
<stop offset="0.54" stop-color="#808080" stop-opacity="0.12"/>
<stop offset="1" stop-color="#808080" stop-opacity="0.1"/>
</linearGradient>
<linearGradient id="paint4_linear_180_4216" x1="15188" y1="21713.4" x2="15188" y2="17906.4" gradientUnits="userSpaceOnUse">
<stop stop-color="#808080" stop-opacity="0.25"/>
<stop offset="0.54" stop-color="#808080" stop-opacity="0.12"/>
<stop offset="1" stop-color="#808080" stop-opacity="0.1"/>
</linearGradient>
<linearGradient id="paint5_linear_180_4216" x1="128549" y1="157753" x2="148419" y2="57707.8" gradientUnits="userSpaceOnUse">
<stop stop-color="#808080" stop-opacity="0.25"/>
<stop offset="0.54" stop-color="#808080" stop-opacity="0.12"/>
<stop offset="1" stop-color="#808080" stop-opacity="0.1"/>
</linearGradient>
<linearGradient id="paint6_linear_180_4216" x1="29062.5" y1="66419.5" x2="32294.6" y2="50145.7" gradientUnits="userSpaceOnUse">
<stop stop-color="#808080" stop-opacity="0.25"/>
<stop offset="0.54" stop-color="#808080" stop-opacity="0.12"/>
<stop offset="1" stop-color="#808080" stop-opacity="0.1"/>
</linearGradient>
<linearGradient id="paint7_linear_180_4216" x1="238.538" y1="266.861" x2="238.538" y2="114.059" gradientUnits="userSpaceOnUse">
<stop stop-color="#B3B3B3" stop-opacity="0.25"/>
<stop offset="0.54" stop-color="#B3B3B3" stop-opacity="0.1"/>
<stop offset="1" stop-color="#B3B3B3" stop-opacity="0.05"/>
</linearGradient>
<linearGradient id="paint8_linear_180_4216" x1="191.287" y1="168.551" x2="191.287" y2="161.198" gradientUnits="userSpaceOnUse">
<stop stop-opacity="0.12"/>
<stop offset="0.55" stop-opacity="0.09"/>
<stop offset="1" stop-opacity="0.02"/>
</linearGradient>
<linearGradient id="paint9_linear_180_4216" x1="49377.2" y1="11038.5" x2="49377.2" y2="9698.67" gradientUnits="userSpaceOnUse">
<stop stop-opacity="0.12"/>
<stop offset="0.55" stop-opacity="0.09"/>
<stop offset="1" stop-opacity="0.02"/>
</linearGradient>
</defs>
</svg>
